<svg width="535" height="177" viewBox="0 0 535 177" fill="none" xmlns="http://www.w3.org/2000/svg">
<path fill-rule="evenodd" clip-rule="evenodd" d="M534.211 177H0C31.5903 75.0613 139.207 0 267.105 0C395.004 0 502.621 75.0613 534.211 177Z" fill="#08071C"/>
<path d="M271 41C271 38.7909 269.209 37 267 37C264.791 37 263 38.7909 263 41L271 41ZM264.172 149.828C265.734 151.391 268.266 151.391 269.828 149.828L295.284 124.373C296.846 122.81 296.846 120.278 295.284 118.716C293.722 117.154 291.19 117.154 289.627 118.716L267 141.343L244.373 118.716C242.81 117.154 240.278 117.154 238.716 118.716C237.154 120.278 237.154 122.81 238.716 124.373L264.172 149.828ZM263 41L263 147L271 147L271 41L263 41Z" fill="white"/>
</svg>
