<?xml version="1.0" standalone="no"?>
<!DOCTYPE svg PUBLIC "-//W3C//DTD SVG 20010904//EN"
 "http://www.w3.org/TR/2001/REC-SVG-20010904/DTD/svg10.dtd">
<svg version="1.0" xmlns="http://www.w3.org/2000/svg"
 width="500.000000pt" height="500.000000pt" viewBox="0 0 500.000000 500.000000"
 preserveAspectRatio="xMidYMid meet">

<g transform="translate(0.000000,500.000000) scale(0.100000,-0.100000)"
fill="#000000" stroke="none">
<path d="M3260 4120 c14 -11 45 -32 70 -45 25 -13 60 -34 78 -46 17 -11 32
-16 32 -10 0 11 -118 84 -137 84 -7 0 -13 3 -13 7 0 4 -12 12 -27 19 l-28 12
25 -21z"/>
<path d="M3140 4103 c1 -11 180 -113 180 -103 0 5 -30 27 -67 48 -96 55 -113
64 -113 55z"/>
<path d="M2377 4047 c-3 -8 1 -14 8 -14 7 0 11 6 8 14 -3 7 -6 13 -8 13 -2 0
-5 -6 -8 -13z"/>
<path d="M2412 4048 c2 -6 10 -13 16 -14 7 -1 8 0 2 3 -5 2 -8 9 -4 14 3 5 0
9 -6 9 -7 0 -10 -5 -8 -12z"/>
<path d="M2595 4050 c-3 -5 -3 -11 2 -11 4 -1 -8 -5 -27 -9 -27 -6 -17 -7 40
-7 41 0 62 2 45 4 -51 7 -63 14 -40 23 16 7 17 9 3 9 -9 1 -20 -3 -23 -9z"/>
<path d="M2427 4004 c3 -9 8 -11 12 -6 4 7 13 5 25 -4 18 -12 15 -19 -6 -15
-5 0 -8 -3 -8 -9 0 -5 7 -10 15 -10 15 0 38 -33 30 -44 -3 -3 -2 -4 2 -1 3 3
13 -1 21 -8 10 -7 13 -8 9 -1 -4 7 1 18 11 25 14 11 15 11 5 0 -15 -17 -6 -41
13 -34 17 6 19 -18 3 -34 -12 -12 -4 -33 12 -33 6 0 8 9 4 19 -3 11 0 23 6 27
9 5 10 2 6 -9 -3 -9 -2 -19 4 -23 6 -3 8 -11 6 -18 -3 -7 11 -11 41 -11 25 1
47 6 49 12 2 6 12 9 22 6 11 -3 24 5 34 20 15 23 15 26 -3 48 -11 12 -20 30
-20 39 0 10 -7 21 -16 24 -21 8 -24 8 -24 -5 0 -5 6 -7 13 -3 6 4 9 3 4 -1 -4
-5 -18 -10 -30 -11 -12 -2 -16 0 -9 2 30 13 7 24 -53 24 -39 0 -65 -4 -65 -11
0 -5 -4 -7 -10 -4 -24 15 -6 25 43 25 29 0 59 6 66 13 11 10 13 10 7 0 -5 -9
3 -13 28 -13 20 0 36 5 36 11 0 5 -4 8 -9 4 -5 -3 -12 -1 -16 5 -8 13 -135 13
-135 0 0 -6 -8 -10 -17 -8 -15 2 -18 -4 -16 -32 0 -19 -1 -27 -4 -17 -2 9 -9
17 -15 17 -6 0 -8 9 -5 21 3 12 3 18 0 15 -3 -3 -12 1 -20 9 -20 21 -54 20
-46 -1z"/>
<path d="M3456 4006 c3 -8 14 -16 25 -19 25 -7 24 -3 -6 17 -19 13 -23 13 -19
2z"/>
<path d="M3330 3991 c0 -5 5 -13 10 -16 6 -3 10 -2 10 4 0 5 -4 13 -10 16 -5
3 -10 2 -10 -4z"/>
<path d="M3360 3971 c0 -6 4 -13 10 -16 6 -3 7 1 4 9 -7 18 -14 21 -14 7z"/>
<path d="M3504 3968 c-4 -7 -4 -10 1 -6 4 4 14 0 21 -10 7 -9 14 -12 14 -6 0
6 -6 17 -14 23 -11 9 -16 9 -22 -1z"/>
<path d="M1465 3950 c-3 -5 -2 -10 4 -10 5 0 13 5 16 10 3 6 2 10 -4 10 -5 0
-13 -4 -16 -10z"/>
<path d="M3400 3940 c6 -11 16 -20 22 -20 6 0 3 9 -7 20 -10 11 -20 20 -22 20
-2 0 1 -9 7 -20z"/>
<path d="M1363 3867 c-113 -99 -211 -212 -297 -342 -77 -115 -151 -253 -142
-263 7 -7 6 -8 36 53 83 173 206 339 374 504 64 63 115 115 114 117 -2 1 -40
-30 -85 -69z"/>
<path d="M2411 3902 c-20 -28 -20 -69 0 -56 5 3 9 1 9 -4 0 -6 7 -13 16 -16
15 -6 15 -4 3 10 -11 14 -11 18 2 28 15 11 14 43 -1 59 -4 5 -17 -5 -29 -21z"/>
<path d="M2521 3852 c13 -22 25 -39 27 -37 5 5 -27 63 -39 71 -6 3 0 -12 12
-34z"/>
<path d="M1260 3855 c-7 -9 -11 -17 -9 -20 3 -2 10 5 17 15 14 24 10 26 -8 5z"/>
<path d="M1214 3809 c-19 -22 -19 -22 4 -10 12 6 22 16 22 21 0 15 -5 12 -26
-11z"/>
<path d="M1098 3688 c-38 -39 -65 -74 -62 -77 3 -3 15 5 25 19 11 14 43 49 71
78 27 28 46 52 42 52 -5 0 -39 -32 -76 -72z"/>
<path d="M2499 3600 c-10 -6 -14 -19 -11 -44 4 -33 5 -34 20 -19 12 11 13 18
5 20 -8 3 -9 12 -3 29 5 13 8 24 7 24 -1 0 -9 -5 -18 -10z"/>
<path d="M1009 3583 c-39 -47 -43 -54 -27 -48 18 7 62 65 50 65 -5 0 -15 -8
-23 -17z"/>
<path d="M911 3438 c-28 -45 -48 -84 -45 -87 8 -8 35 30 29 40 -3 4 -1 9 4 11
14 5 83 118 72 118 -6 0 -33 -37 -60 -82z"/>
<path d="M906 3235 c-3 -8 -1 -15 3 -15 5 0 11 7 15 15 3 8 1 15 -3 15 -5 0
-11 -7 -15 -15z"/>
<path d="M883 3180 c-6 -16 -8 -30 -3 -30 4 0 13 14 19 30 5 17 7 30 3 30 -4
0 -13 -13 -19 -30z"/>
<path d="M860 3119 c0 -5 5 -7 10 -4 6 3 10 8 10 11 0 2 -4 4 -10 4 -5 0 -10
-5 -10 -11z"/>
<path d="M4133 2475 c0 -22 2 -30 4 -17 2 12 2 30 0 40 -3 9 -5 -1 -4 -23z"/>
<path d="M4124 2406 c-3 -8 -4 -23 -2 -33 3 -11 6 -6 9 15 6 34 2 42 -7 18z"/>
<path d="M4112 2265 c-64 -434 -248 -799 -548 -1085 -101 -96 -205 -174 -319
-238 -49 -28 -96 -56 -102 -62 -7 -6 -13 -8 -13 -5 0 3 -15 -2 -32 -12 -18
-10 -58 -27 -88 -40 -30 -12 -50 -22 -44 -22 6 -1 28 6 49 15 21 9 49 13 64 9
21 -4 23 -3 11 5 -12 9 -9 11 13 7 15 -2 27 0 27 5 0 5 5 6 10 3 12 -8 145 55
245 116 224 135 432 336 573 552 131 200 254 515 251 640 l-1 42 -9 -50 c-14
-85 -67 -250 -114 -358 -97 -221 -199 -370 -370 -542 -150 -152 -269 -241
-423 -319 -71 -36 -76 -27 -10 15 407 257 677 623 797 1083 28 106 53 259 49
298 -2 21 -8 1 -16 -57z"/>
<path d="M1125 1410 c3 -5 11 -10 16 -10 6 0 7 5 4 10 -3 6 -11 10 -16 10 -6
0 -7 -4 -4 -10z"/>
<path d="M1022 1374 c10 -10 44 -50 77 -89 70 -83 151 -163 151 -150 0 6 -25
35 -56 65 -31 30 -79 82 -107 115 -27 33 -57 64 -66 69 -14 7 -13 6 1 -10z"/>
<path d="M1180 1344 c53 -62 195 -204 204 -204 11 0 -202 222 -219 229 -5 2 1
-9 15 -25z"/>
</g>
</svg>
